<?xml version="1.0" standalone="no"?>
<!DOCTYPE svg PUBLIC "-//W3C//DTD SVG 20010904//EN"
 "http://www.w3.org/TR/2001/REC-SVG-20010904/DTD/svg10.dtd">
<svg version="1.0" xmlns="http://www.w3.org/2000/svg"
 width="1470.000000pt" height="1470.000000pt" viewBox="0 0 1470.000000 1470.000000"
 preserveAspectRatio="xMidYMid meet">
<metadata>
Created by potrace 1.14, written by Peter Selinger 2001-2017
</metadata>
<g transform="translate(0.000000,1470.000000) scale(0.100000,-0.100000)"
fill="#000000" stroke="none">
<path d="M1269 14696 c-2 -2 -26 -6 -54 -9 -234 -25 -519 -150 -710 -312 -252
-214 -403 -466 -477 -796 l-23 -104 0 -6125 c0 -5822 1 -6129 18 -6205 9 -44
20 -91 23 -104 26 -118 139 -352 228 -471 210 -281 474 -451 841 -542 l90 -23
6110 -2 c6033 -2 6111 -2 6217 17 452 83 820 356 1020 755 53 105 109 269 123
364 3 14 9 53 14 86 6 38 9 2295 8 6165 -2 5835 -3 6108 -20 6180 -51 211
-134 399 -243 550 -59 82 -174 205 -238 255 -21 17 -44 35 -50 40 -29 26 -109
77 -187 119 -123 66 -255 112 -439 153 -34 7 -12243 17 -12251 9z"/>
</g>
</svg>
